{"asset":{"version":"2.0","generator":"Blockbench 5.0.7 glTF exporter"},"scenes":[{"nodes":[16],"name":"blockbench_export"}],"scene":0,"nodes":[{"translation":[0,4,0],"name":"Head","mesh":0},{"name":"Head","children":[0]},{"translation":[0,4,0],"name":"Torso","mesh":1},{"name":"Torso","children":[2]},{"translation":[0,4,0],"name":"R_Forearm","mesh":2},{"translation":[0,4,0],"name":"R_Upper_Arm","mesh":3},{"name":"R_Arm","children":[4,5]},{"translation":[0,4,0],"name":"L_Forearm","mesh":4},{"translation":[0,4,0],"name":"L_Upper_Arm","mesh":5},{"name":"L_Arm","children":[7,8]},{"translation":[0,4,0],"name":"R_Leg_Thigh","mesh":6},{"translation":[0,4,0],"name":"R_Leg_Calf","mesh":7},{"name":"R_Leg","children":[10,11]},{"translation":[0,4,0],"name":"L_Leg_Thigh","mesh":8},{"translation":[0,4,0],"name":"L_Leg_Calf","mesh":9},{"name":"L_Leg","children":[13,14]},{"name":"Root","children":[1,3,6,9,12,15]}],"bufferViews":[{"buffer":0,"byteOffset":0,"byteLength":1968,"target":34962,"byteStride":12},{"buffer":0,"byteOffset":1968,"byteLength":1968,"target":34962,"byteStride":12},{"buffer":0,"byteOffset":3936,"byteLength":1312,"target":34962,"byteStride":8},{"buffer":0,"byteOffset":5248,"byteLength":336,"target":34963},{"buffer":0,"byteOffset":5584,"byteLength":1776,"target":34962,"byteStride":12},{"buffer":0,"byteOffset":7360,"byteLength":1776,"target":34962,"byteStride":12},{"buffer":0,"byteOffset":9136,"byteLength":1184,"target":34962,"byteStride":8},{"buffer":0,"byteOffset":10320,"byteLength":312,"target":34963},{"buffer":0,"byteOffset":10632,"byteLength":3744,"target":34962,"byteStride":12},{"buffer":0,"byteOffset":14376,"byteLength":3744,"target":34962,"byteStride":12},{"buffer":0,"byteOffset":18120,"byteLength":2496,"target":34962,"byteStride":8},{"buffer":0,"byteOffset":20616,"byteLength":876,"target":34963},{"buffer":0,"byteOffset":21492,"byteLength":816,"target":34962,"byteStride":12},{"buffer":0,"byteOffset":22308,"byteLength":816,"target":34962,"byteStride":12},{"buffer":0,"byteOffset":23124,"byteLength":544,"target":34962,"byteStride":8},{"buffer":0,"byteOffset":23668,"byteLength":144,"target":34963},{"buffer":0,"byteOffset":23812,"byteLength":3744,"target":34962,"byteStride":12},{"buffer":0,"byteOffset":27556,"byteLength":3744,"target":34962,"byteStride":12},{"buffer":0,"byteOffset":31300,"byteLength":2496,"target":34962,"byteStride":8},{"buffer":0,"byteOffset":33796,"byteLength":876,"target":34963},{"buffer":0,"byteOffset":34672,"byteLength":816,"target":34962,"byteStride":12},{"buffer":0,"byteOffset":35488,"byteLength":816,"target":34962,"byteStride":12},{"buffer":0,"byteOffset":36304,"byteLength":544,"target":34962,"byteStride":8},{"buffer":0,"byteOffset":36848,"byteLength":144,"target":34963},{"buffer":0,"byteOffset":36992,"byteLength":1272,"target":34962,"byteStride":12},{"buffer":0,"byteOffset":38264,"byteLength":1272,"target":34962,"byteStride":12},{"buffer":0,"byteOffset":39536,"byteLength":848,"target":34962,"byteStride":8},{"buffer":0,"byteOffset":40384,"byteLength":216,"target":34963},{"buffer":0,"byteOffset":40600,"byteLength":528,"target":34962,"byteStride":12},{"buffer":0,"byteOffset":41128,"byteLength":528,"target":34962,"byteStride":12},{"buffer":0,"byteOffset":41656,"byteLength":352,"target":34962,"byteStride":8},{"buffer":0,"byteOffset":42008,"byteLength":96,"target":34963},{"buffer":0,"byteOffset":42104,"byteLength":1272,"target":34962,"byteStride":12},{"buffer":0,"byteOffset":43376,"byteLength":1272,"target":34962,"byteStride":12},{"buffer":0,"byteOffset":44648,"byteLength":848,"target":34962,"byteStride":8},{"buffer":0,"byteOffset":45496,"byteLength":216,"target":34963},{"buffer":0,"byteOffset":45712,"byteLength":528,"target":34962,"byteStride":12},{"buffer":0,"byteOffset":46240,"byteLength":528,"target":34962,"byteStride":12},{"buffer":0,"byteOffset":46768,"byteLength":352,"target":34962,"byteStride":8},{"buffer":0,"byteOffset":47120,"byteLength":96,"target":34963}],"buffers":[{"byteLength":47216,"uri":"data:application/octet-stream;base64,"}],"accessors":[{"bufferView":0,"componentType":5126,"count":164,"max":[0.3425000011920929,3.799999952316284,0.38934001326560974],"min":[-0.3425000011920929,2.5999999046325684,-0.47154000401496887],"type":"VEC3"},{"bufferView":1,"componentType":5126,"count":164,"max":[0.9890352487564087,0.9912957549095154,0.909485936164856],"min":[-0.9890352487564087,-1,-0.9593164324760437],"type":"VEC3"},{"bufferView":2,"componentType":5126,"count":164,"max":[0.8218462467193604,0.38574814796447754],"min":[0,0],"type":"VEC2"},{"bufferView":3,"componentType":5123,"count":168,"max":[163],"min":[0],"type":"SCALAR"},{"bufferView":4,"componentType":5126,"count":148,"max":[0.7540000081062317,2.5999999046325684,0.6919999718666077],"min":[-0.7540000081062317,-0.3199999928474426,-0.4519999921321869],"type":"VEC3"},{"bufferView":5,"componentType":5126,"count":148,"max":[0.9889363646507263,1,0.9766797423362732],"min":[-0.9889363646507263,-0.2114003598690033,-0.9840283989906311],"type":"VEC3"},{"bufferView":6,"componentType":5126,"count":148,"max":[1,1],"min":[0,0],"type":"VEC2"},{"bufferView":7,"componentType":5123,"count":156,"max":[147],"min":[0],"type":"SCALAR"},{"bufferView":8,"componentType":5126,"count":312,"max":[-1.3162537813186646,1.3624037504196167,0.4210149943828583],"min":[-2.6072843074798584,-0.16143187880516052,-0.25460687279701233],"type":"VEC3"},{"bufferView":9,"componentType":5126,"count":312,"max":[0.9273646473884583,0.7686238884925842,0.9887171983718872],"min":[-0.8840842247009277,-0.9429956078529358,-0.991771399974823],"type":"VEC3"},{"bufferView":10,"componentType":5126,"count":312,"max":[0.7662819027900696,0.7488875389099121],"min":[0,0],"type":"VEC2"},{"bufferView":11,"componentType":5123,"count":438,"max":[311],"min":[0],"type":"SCALAR"},{"bufferView":12,"componentType":5126,"count":68,"max":[-0.4740000069141388,2.4800000190734863,0.4440000057220459],"min":[-1.7268937826156616,1.0093337297439575,-0.3240000009536743],"type":"VEC3"},{"bufferView":13,"componentType":5126,"count":68,"max":[0.9161573052406311,0.9838699102401733,0.995078444480896],"min":[-0.8741572499275208,-0.761205792427063,-0.9992148280143738],"type":"VEC3"},{"bufferView":14,"componentType":5126,"count":68,"max":[0.7680000066757202,0.6985687613487244],"min":[0,0],"type":"VEC2"},{"bufferView":15,"componentType":5123,"count":72,"max":[67],"min":[0],"type":"SCALAR"},{"bufferView":16,"componentType":5126,"count":312,"max":[2.6072843074798584,1.3624037504196167,0.4210149943828583],"min":[1.3162537813186646,-0.16143187880516052,-0.25460687279701233],"type":"VEC3"},{"bufferView":17,"componentType":5126,"count":312,"max":[0.8840842247009277,0.7686238884925842,0.9887171983718872],"min":[-0.9273646473884583,-0.9429956078529358,-0.991771399974823],"type":"VEC3"},{"bufferView":18,"componentType":5126,"count":312,"max":[0.7662819027900696,0.7488875389099121],"min":[0,0],"type":"VEC2"},{"bufferView":19,"componentType":5123,"count":438,"max":[311],"min":[0],"type":"SCALAR"},{"bufferView":20,"componentType":5126,"count":68,"max":[1.7268937826156616,2.4800000190734863,0.4440000057220459],"min":[0.4740000069141388,1.0093337297439575,-0.3240000009536743],"type":"VEC3"},{"bufferView":21,"componentType":5126,"count":68,"max":[0.8741572499275208,0.9838699102401733,0.995078444480896],"min":[-0.9161573052406311,-0.761205792427063,-0.9992148280143738],"type":"VEC3"},{"bufferView":22,"componentType":5126,"count":68,"max":[0.7680000066757202,0.6985687613487244],"min":[0,0],"type":"VEC2"},{"bufferView":23,"componentType":5123,"count":72,"max":[67],"min":[0],"type":"SCALAR"},{"bufferView":24,"componentType":5126,"count":106,"max":[-0.10835249722003937,-1.5918731689453125,0.6110718846321106],"min":[-0.6045175194740295,-3.9803693294525146,-0.3378356397151947],"type":"VEC3"},{"bufferView":25,"componentType":5126,"count":106,"max":[1,0.8920738101005554,0.9862056970596313],"min":[-1,-0.9999964833259583,-0.9862056970596313],"type":"VEC3"},{"bufferView":26,"componentType":5126,"count":106,"max":[1,1],"min":[0,0],"type":"VEC2"},{"bufferView":27,"componentType":5123,"count":108,"max":[105],"min":[0],"type":"SCALAR"},{"bufferView":28,"componentType":5126,"count":44,"max":[0,-0.03999999910593033,0.5199999809265137],"min":[-0.6800000071525574,-1.918095588684082,-0.36000001430511475],"type":"VEC3"},{"bufferView":29,"componentType":5126,"count":44,"max":[0.9995570778846741,0.9246780872344971,0.9839550256729126],"min":[-0.9995495676994324,-0.7728866338729858,-0.9857034683227539],"type":"VEC3"},{"bufferView":30,"componentType":5126,"count":44,"max":[0.9920243620872498,0.8504981398582458],"min":[0,0],"type":"VEC2"},{"bufferView":31,"componentType":5123,"count":48,"max":[43],"min":[0],"type":"SCALAR"},{"bufferView":32,"componentType":5126,"count":106,"max":[0.6045175194740295,-1.5918731689453125,0.6110718846321106],"min":[0.10835249722003937,-3.9803693294525146,-0.3378356397151947],"type":"VEC3"},{"bufferView":33,"componentType":5126,"count":106,"max":[1,0.8920738101005554,0.9862056970596313],"min":[-1,-0.9999964833259583,-0.9862056970596313],"type":"VEC3"},{"bufferView":34,"componentType":5126,"count":106,"max":[1,1],"min":[0,0],"type":"VEC2"},{"bufferView":35,"componentType":5123,"count":108,"max":[105],"min":[0],"type":"SCALAR"},{"bufferView":36,"componentType":5126,"count":44,"max":[0.6800000071525574,-0.03999999910593033,0.5199999809265137],"min":[0,-1.918095588684082,-0.36000001430511475],"type":"VEC3"},{"bufferView":37,"componentType":5126,"count":44,"max":[0.9995495676994324,0.9246780872344971,0.9839550256729126],"min":[-0.9995570778846741,-0.7728866338729858,-0.9857034683227539],"type":"VEC3"},{"bufferView":38,"componentType":5126,"count":44,"max":[0.9920243620872498,0.8504981398582458],"min":[0,0],"type":"VEC2"},{"bufferView":39,"componentType":5123,"count":48,"max":[43],"min":[0],"type":"SCALAR"}],"materials":[{"pbrMetallicRoughness":{"metallicFactor":0,"roughnessFactor":1},"alphaMode":"MASK","alphaCutoff":0.05,"doubleSided":true}],"meshes":[{"primitives":[{"mode":4,"attributes":{"POSITION":0,"NORMAL":1,"TEXCOORD_0":2},"indices":3,"material":0}]},{"primitives":[{"mode":4,"attributes":{"POSITION":4,"NORMAL":5,"TEXCOORD_0":6},"indices":7,"material":0}]},{"primitives":[{"mode":4,"attributes":{"POSITION":8,"NORMAL":9,"TEXCOORD_0":10},"indices":11,"material":0}]},{"primitives":[{"mode":4,"attributes":{"POSITION":12,"NORMAL":13,"TEXCOORD_0":14},"indices":15,"material":0}]},{"primitives":[{"mode":4,"attributes":{"POSITION":16,"NORMAL":17,"TEXCOORD_0":18},"indices":19,"material":0}]},{"primitives":[{"mode":4,"attributes":{"POSITION":20,"NORMAL":21,"TEXCOORD_0":22},"indices":23,"material":0}]},{"primitives":[{"mode":4,"attributes":{"POSITION":24,"NORMAL":25,"TEXCOORD_0":26},"indices":27,"material":0}]},{"primitives":[{"mode":4,"attributes":{"POSITION":28,"NORMAL":29,"TEXCOORD_0":30},"indices":31,"material":0}]},{"primitives":[{"mode":4,"attributes":{"POSITION":32,"NORMAL":33,"TEXCOORD_0":34},"indices":35,"material":0}]},{"primitives":[{"mode":4,"attributes":{"POSITION":36,"NORMAL":37,"TEXCOORD_0":38},"indices":39,"material":0}]}]}